<mxfile host="app.diagrams.net" modified="2023-09-21T09:45:38.420Z" agent="Mozilla/5.0 (Windows NT 10.0; Win64; x64) AppleWebKit/537.36 (KHTML, like Gecko) Chrome/117.0.0.0 Safari/537.36 Edg/117.0.2045.36" etag="AzHWc9XTLr-Lu1zUI-1I" version="21.8.0" type="device">
  <diagram name="Page-1" id="uz9BvFtWpMFxNiBkFplC">
    <mxGraphModel dx="1315" dy="577" grid="1" gridSize="10" guides="1" tooltips="1" connect="1" arrows="1" fold="1" page="1" pageScale="1" pageWidth="1654" pageHeight="1169" math="0" shadow="0">
      <root>
        <mxCell id="0" />
        <mxCell id="1" parent="0" />
        <mxCell id="jf_pN6PWuNRnCiqlb17B-40" style="edgeStyle=orthogonalEdgeStyle;rounded=0;orthogonalLoop=1;jettySize=auto;html=1;exitX=-0.001;exitY=0.928;exitDx=0;exitDy=0;exitPerimeter=0;entryX=0;entryY=0.108;entryDx=0;entryDy=0;entryPerimeter=0;" parent="1" source="jf_pN6PWuNRnCiqlb17B-3" target="jf_pN6PWuNRnCiqlb17B-7" edge="1">
          <mxGeometry relative="1" as="geometry">
            <mxPoint x="310" y="470" as="targetPoint" />
            <Array as="points">
              <mxPoint x="500" y="150" />
              <mxPoint x="280" y="150" />
              <mxPoint x="280" y="462" />
              <mxPoint x="310" y="462" />
            </Array>
          </mxGeometry>
        </mxCell>
        <mxCell id="jf_pN6PWuNRnCiqlb17B-3" value="" style="swimlane;startSize=0;" parent="1" vertex="1">
          <mxGeometry x="500" y="60" width="110" height="100" as="geometry" />
        </mxCell>
        <mxCell id="jf_pN6PWuNRnCiqlb17B-4" value="&lt;b&gt;&lt;u&gt;Id&lt;/u&gt;&lt;/b&gt;&lt;br&gt;Rank&lt;br&gt;IName&lt;br&gt;IOffice&lt;br&gt;IPhone&lt;br&gt;I_DCode" style="text;html=1;strokeColor=none;fillColor=none;align=left;verticalAlign=middle;whiteSpace=wrap;rounded=0;" parent="jf_pN6PWuNRnCiqlb17B-3" vertex="1">
          <mxGeometry y="40" width="70" height="30" as="geometry" />
        </mxCell>
        <mxCell id="jf_pN6PWuNRnCiqlb17B-5" value="&lt;b&gt;&lt;font style=&quot;font-size: 14px;&quot;&gt;Instructor&lt;/font&gt;&lt;/b&gt;" style="text;html=1;strokeColor=none;fillColor=none;align=center;verticalAlign=middle;whiteSpace=wrap;rounded=0;" parent="1" vertex="1">
          <mxGeometry x="510" y="30" width="60" height="30" as="geometry" />
        </mxCell>
        <mxCell id="jf_pN6PWuNRnCiqlb17B-6" value="&lt;b&gt;&lt;font style=&quot;font-size: 14px;&quot;&gt;Department&lt;/font&gt;&lt;/b&gt;" style="text;html=1;strokeColor=none;fillColor=none;align=center;verticalAlign=middle;whiteSpace=wrap;rounded=0;" parent="1" vertex="1">
          <mxGeometry x="320" y="420" width="60" height="30" as="geometry" />
        </mxCell>
        <mxCell id="jf_pN6PWuNRnCiqlb17B-42" style="edgeStyle=orthogonalEdgeStyle;rounded=0;orthogonalLoop=1;jettySize=auto;html=1;exitX=0.001;exitY=0.926;exitDx=0;exitDy=0;entryX=-0.001;entryY=0.311;entryDx=0;entryDy=0;entryPerimeter=0;exitPerimeter=0;" parent="1" source="jf_pN6PWuNRnCiqlb17B-7" target="jf_pN6PWuNRnCiqlb17B-11" edge="1">
          <mxGeometry relative="1" as="geometry">
            <Array as="points">
              <mxPoint x="310" y="550" />
              <mxPoint x="30" y="550" />
              <mxPoint x="30" y="143" />
            </Array>
          </mxGeometry>
        </mxCell>
        <mxCell id="jf_pN6PWuNRnCiqlb17B-7" value="" style="swimlane;startSize=0;" parent="1" vertex="1">
          <mxGeometry x="310" y="450" width="130" height="110" as="geometry" />
        </mxCell>
        <mxCell id="jf_pN6PWuNRnCiqlb17B-8" value="&lt;b&gt;&lt;u&gt;DCode&lt;/u&gt;&lt;/b&gt;&lt;br&gt;DName&lt;br&gt;DOffice&lt;br&gt;DPhone&lt;br&gt;Chair&lt;br&gt;CStartDate&lt;br&gt;D_CName" style="text;html=1;strokeColor=none;fillColor=none;align=left;verticalAlign=middle;whiteSpace=wrap;rounded=0;" parent="jf_pN6PWuNRnCiqlb17B-7" vertex="1">
          <mxGeometry y="30" width="60" height="50" as="geometry" />
        </mxCell>
        <mxCell id="jf_pN6PWuNRnCiqlb17B-32" style="edgeStyle=orthogonalEdgeStyle;rounded=0;orthogonalLoop=1;jettySize=auto;html=1;exitX=-0.001;exitY=0.822;exitDx=0;exitDy=0;exitPerimeter=0;" parent="1" source="jf_pN6PWuNRnCiqlb17B-11" edge="1">
          <mxGeometry relative="1" as="geometry">
            <Array as="points">
              <mxPoint x="120" y="190" />
              <mxPoint x="70" y="190" />
              <mxPoint x="70" y="82" />
            </Array>
            <mxPoint x="500" y="82" as="targetPoint" />
          </mxGeometry>
        </mxCell>
        <mxCell id="jf_pN6PWuNRnCiqlb17B-9" value="" style="swimlane;startSize=0;" parent="1" vertex="1">
          <mxGeometry x="120" y="120" width="120" height="85" as="geometry" />
        </mxCell>
        <mxCell id="jf_pN6PWuNRnCiqlb17B-10" value="&lt;b&gt;&lt;font style=&quot;font-size: 14px;&quot;&gt;College&lt;/font&gt;&lt;/b&gt;" style="text;html=1;strokeColor=none;fillColor=none;align=center;verticalAlign=middle;whiteSpace=wrap;rounded=0;" parent="jf_pN6PWuNRnCiqlb17B-9" vertex="1">
          <mxGeometry y="-30" width="60" height="30" as="geometry" />
        </mxCell>
        <mxCell id="jf_pN6PWuNRnCiqlb17B-39" style="edgeStyle=orthogonalEdgeStyle;rounded=0;orthogonalLoop=1;jettySize=auto;html=1;exitX=-0.001;exitY=0.918;exitDx=0;exitDy=0;exitPerimeter=0;entryX=0;entryY=0.107;entryDx=0;entryDy=0;entryPerimeter=0;" parent="1" source="jf_pN6PWuNRnCiqlb17B-15" target="jf_pN6PWuNRnCiqlb17B-7" edge="1">
          <mxGeometry relative="1" as="geometry">
            <Array as="points">
              <mxPoint x="380" y="401" />
              <mxPoint x="380" y="420" />
              <mxPoint x="280" y="420" />
              <mxPoint x="280" y="462" />
              <mxPoint x="310" y="462" />
            </Array>
            <mxPoint x="310" y="470" as="targetPoint" />
          </mxGeometry>
        </mxCell>
        <mxCell id="jf_pN6PWuNRnCiqlb17B-15" value="" style="swimlane;startSize=0;" parent="1" vertex="1">
          <mxGeometry x="510" y="300" width="140" height="110" as="geometry" />
        </mxCell>
        <mxCell id="jf_pN6PWuNRnCiqlb17B-16" value="&lt;b&gt;&lt;u&gt;CCode&lt;/u&gt;&lt;/b&gt;&lt;br&gt;Credits&lt;br&gt;CoName&lt;br&gt;Level&lt;br&gt;CDesc&lt;br&gt;Co_Dcode" style="text;html=1;strokeColor=none;fillColor=none;align=left;verticalAlign=middle;whiteSpace=wrap;rounded=0;" parent="jf_pN6PWuNRnCiqlb17B-15" vertex="1">
          <mxGeometry y="50" width="60" height="30" as="geometry" />
        </mxCell>
        <mxCell id="jf_pN6PWuNRnCiqlb17B-17" value="&lt;font style=&quot;font-size: 14px;&quot;&gt;&lt;b&gt;Course&lt;/b&gt;&lt;/font&gt;" style="text;html=1;strokeColor=none;fillColor=none;align=center;verticalAlign=middle;whiteSpace=wrap;rounded=0;" parent="jf_pN6PWuNRnCiqlb17B-15" vertex="1">
          <mxGeometry y="-30" width="60" height="30" as="geometry" />
        </mxCell>
        <mxCell id="jf_pN6PWuNRnCiqlb17B-45" style="edgeStyle=orthogonalEdgeStyle;rounded=0;orthogonalLoop=1;jettySize=auto;html=1;exitX=0.001;exitY=0.914;exitDx=0;exitDy=0;entryX=-0.002;entryY=0.11;entryDx=0;entryDy=0;exitPerimeter=0;entryPerimeter=0;" parent="1" source="jf_pN6PWuNRnCiqlb17B-18" target="jf_pN6PWuNRnCiqlb17B-7" edge="1">
          <mxGeometry relative="1" as="geometry">
            <Array as="points">
              <mxPoint x="480" y="550" />
              <mxPoint x="480" y="420" />
              <mxPoint x="280" y="420" />
              <mxPoint x="280" y="462" />
            </Array>
          </mxGeometry>
        </mxCell>
        <mxCell id="jf_pN6PWuNRnCiqlb17B-18" value="" style="swimlane;startSize=0;" parent="1" vertex="1">
          <mxGeometry x="695" y="440" width="150" height="120" as="geometry" />
        </mxCell>
        <mxCell id="jf_pN6PWuNRnCiqlb17B-19" value="&lt;b&gt;&lt;u&gt;Sid&lt;/u&gt;&lt;/b&gt;&lt;br&gt;DOB&lt;br&gt;SName&lt;br&gt;Addr&lt;br&gt;SPhone&lt;br&gt;Major&lt;br&gt;S_DCode" style="text;html=1;strokeColor=none;fillColor=none;align=left;verticalAlign=middle;whiteSpace=wrap;rounded=0;" parent="jf_pN6PWuNRnCiqlb17B-18" vertex="1">
          <mxGeometry y="50" width="60" height="30" as="geometry" />
        </mxCell>
        <mxCell id="jf_pN6PWuNRnCiqlb17B-20" value="&lt;b&gt;&lt;font style=&quot;font-size: 14px;&quot;&gt;Student&lt;/font&gt;&lt;/b&gt;" style="text;html=1;strokeColor=none;fillColor=none;align=center;verticalAlign=middle;whiteSpace=wrap;rounded=0;" parent="1" vertex="1">
          <mxGeometry x="695" y="410" width="60" height="30" as="geometry" />
        </mxCell>
        <mxCell id="jf_pN6PWuNRnCiqlb17B-21" value="" style="swimlane;startSize=0;" parent="1" vertex="1">
          <mxGeometry x="837" y="310" width="100" height="60" as="geometry" />
        </mxCell>
        <mxCell id="jf_pN6PWuNRnCiqlb17B-23" value="&lt;font style=&quot;font-size: 14px;&quot;&gt;&lt;b&gt;Takes&lt;/b&gt;&lt;/font&gt;" style="text;html=1;strokeColor=none;fillColor=none;align=center;verticalAlign=middle;whiteSpace=wrap;rounded=0;" parent="1" vertex="1">
          <mxGeometry x="827" y="280" width="60" height="30" as="geometry" />
        </mxCell>
        <mxCell id="jf_pN6PWuNRnCiqlb17B-36" style="edgeStyle=orthogonalEdgeStyle;rounded=0;orthogonalLoop=1;jettySize=auto;html=1;exitX=-0.002;exitY=0.864;exitDx=0;exitDy=0;exitPerimeter=0;" parent="1" source="jf_pN6PWuNRnCiqlb17B-27" edge="1">
          <mxGeometry relative="1" as="geometry">
            <mxPoint x="500" y="82" as="targetPoint" />
            <Array as="points">
              <mxPoint x="620" y="230" />
              <mxPoint x="620" y="20" />
              <mxPoint x="450" y="20" />
              <mxPoint x="450" y="82" />
              <mxPoint x="500" y="82" />
            </Array>
          </mxGeometry>
        </mxCell>
        <mxCell id="jf_pN6PWuNRnCiqlb17B-41" style="edgeStyle=orthogonalEdgeStyle;rounded=0;orthogonalLoop=1;jettySize=auto;html=1;exitX=-0.001;exitY=0.949;exitDx=0;exitDy=0;entryX=0;entryY=0.25;entryDx=0;entryDy=0;exitPerimeter=0;" parent="1" source="jf_pN6PWuNRnCiqlb17B-27" target="jf_pN6PWuNRnCiqlb17B-15" edge="1">
          <mxGeometry relative="1" as="geometry">
            <Array as="points">
              <mxPoint x="440" y="242" />
              <mxPoint x="440" y="328" />
              <mxPoint x="490" y="328" />
            </Array>
          </mxGeometry>
        </mxCell>
        <mxCell id="jf_pN6PWuNRnCiqlb17B-27" value="" style="swimlane;startSize=0;" parent="1" vertex="1">
          <mxGeometry x="690" y="100" width="160" height="150" as="geometry" />
        </mxCell>
        <mxCell id="jf_pN6PWuNRnCiqlb17B-28" value="&lt;b&gt;&lt;u&gt;SecId&lt;/u&gt;&lt;/b&gt;&lt;br&gt;SecNo&lt;br&gt;Sem&lt;br&gt;Year&lt;br&gt;Blgd&lt;br&gt;RoomNo&lt;br&gt;DaysTime&lt;br&gt;Instructor_Id&lt;br&gt;Sec_CCode" style="text;html=1;strokeColor=none;fillColor=none;align=left;verticalAlign=middle;whiteSpace=wrap;rounded=0;" parent="jf_pN6PWuNRnCiqlb17B-27" vertex="1">
          <mxGeometry y="70" width="60" height="30" as="geometry" />
        </mxCell>
        <mxCell id="jf_pN6PWuNRnCiqlb17B-29" value="&lt;font style=&quot;font-size: 14px;&quot;&gt;&lt;b&gt;Section&lt;/b&gt;&lt;/font&gt;" style="text;html=1;strokeColor=none;fillColor=none;align=center;verticalAlign=middle;whiteSpace=wrap;rounded=0;" parent="1" vertex="1">
          <mxGeometry x="690" y="70" width="60" height="30" as="geometry" />
        </mxCell>
        <mxCell id="jf_pN6PWuNRnCiqlb17B-11" value="&lt;b&gt;&lt;u&gt;&lt;br&gt;CName&lt;/u&gt;&lt;/b&gt;&lt;br&gt;COffice&lt;br&gt;CPhone&lt;br&gt;Dean_Id" style="text;html=1;align=left;verticalAlign=middle;resizable=0;points=[];autosize=1;strokeColor=none;fillColor=none;" parent="1" vertex="1">
          <mxGeometry x="120" y="115" width="70" height="90" as="geometry" />
        </mxCell>
        <mxCell id="jf_pN6PWuNRnCiqlb17B-44" style="edgeStyle=orthogonalEdgeStyle;rounded=0;orthogonalLoop=1;jettySize=auto;html=1;exitX=0;exitY=0.5;exitDx=0;exitDy=0;entryX=-0.001;entryY=0.19;entryDx=0;entryDy=0;entryPerimeter=0;" parent="1" source="jf_pN6PWuNRnCiqlb17B-22" target="jf_pN6PWuNRnCiqlb17B-18" edge="1">
          <mxGeometry relative="1" as="geometry" />
        </mxCell>
        <mxCell id="jf_pN6PWuNRnCiqlb17B-46" style="edgeStyle=orthogonalEdgeStyle;rounded=0;orthogonalLoop=1;jettySize=auto;html=1;exitX=0;exitY=0;exitDx=0;exitDy=0;entryX=0.001;entryY=0.193;entryDx=0;entryDy=0;entryPerimeter=0;" parent="1" source="jf_pN6PWuNRnCiqlb17B-22" target="jf_pN6PWuNRnCiqlb17B-27" edge="1">
          <mxGeometry relative="1" as="geometry">
            <Array as="points">
              <mxPoint x="790" y="330" />
              <mxPoint x="790" y="270" />
              <mxPoint x="900" y="270" />
              <mxPoint x="900" y="40" />
              <mxPoint x="660" y="40" />
              <mxPoint x="660" y="129" />
            </Array>
          </mxGeometry>
        </mxCell>
        <mxCell id="jf_pN6PWuNRnCiqlb17B-22" value="&lt;b style=&quot;border-color: var(--border-color);&quot;&gt;&lt;u style=&quot;border-color: var(--border-color);&quot;&gt;SecId&lt;/u&gt;&lt;/b&gt;&lt;b&gt;&lt;u&gt;&lt;br&gt;Sid&lt;/u&gt;&lt;/b&gt;&lt;br&gt;Grade" style="text;html=1;strokeColor=none;fillColor=none;align=left;verticalAlign=middle;whiteSpace=wrap;rounded=0;" parent="1" vertex="1">
          <mxGeometry x="837" y="330" width="60" height="30" as="geometry" />
        </mxCell>
        <mxCell id="s6PS3lky0Xwu4awu7p4x-1" style="edgeStyle=orthogonalEdgeStyle;rounded=0;orthogonalLoop=1;jettySize=auto;html=1;exitX=0;exitY=0.75;exitDx=0;exitDy=0;" edge="1" parent="1" source="jf_pN6PWuNRnCiqlb17B-8">
          <mxGeometry relative="1" as="geometry">
            <mxPoint x="500" y="82" as="targetPoint" />
            <Array as="points">
              <mxPoint x="260" y="518" />
              <mxPoint x="260" y="82" />
            </Array>
          </mxGeometry>
        </mxCell>
      </root>
    </mxGraphModel>
  </diagram>
</mxfile>
